<?xml version="1.0" encoding="UTF-8"?>
<svg id="Camada_2" data-name="Camada 2" xmlns="http://www.w3.org/2000/svg" xmlns:xlink="http://www.w3.org/1999/xlink" viewBox="0 0 243.23 54.99">
  <defs>
    <style>
      .cls-1 {
        font-family: Inter-Medium, Inter;
        font-size: 15.76px;
        font-weight: 500;
      }

      .cls-1, .cls-2 {
        fill: #fff;
      }

      .cls-3 {
        letter-spacing: .05em;
      }

      .cls-4 {
        fill: #0084b3;
      }

      .cls-5 {
        fill: #e7357a;
      }

      .cls-6 {
        fill: #232147;
      }

      .cls-7 {
        fill: none;
      }

      .cls-8 {
        letter-spacing: .05em;
      }

      .cls-9 {
        fill: #243772;
      }

      .cls-10 {
        fill: #f59f00;
      }

      .cls-11 {
        fill: #fdf6ef;
      }

      .cls-12 {
        clip-path: url(#clippath);
      }
    </style>
    <clipPath id="clippath">
      <path class="cls-7" d="M111.92,9.61c-4.33-3.78-6.15-5.28-5.52-8.67h-24.78v21.59c0,3.94-2.05,5.91-5.36,5.91s-5.44-1.97-5.44-5.91V.95h-12.13v1.34c-2.91-1.48-6.29-2.28-9.97-2.28-5.58,0-10.47,1.91-14.01,5.24C31.12,1.94,26.18,0,20.48,0,8.59,0,0,8.43,0,20.09s8.59,20.09,20.48,20.09c3.04,0,5.87-.55,8.39-1.57v16.38h12.13V20.09c0-5.44,3.62-8.35,7.88-8.35,4.73,0,7.72,3.55,7.72,7.8,0,4.81-3.78,8.11-9.14,8.11h-3.55l3.15,11.58h1.34c5.57,0,10.44-1.82,14.04-4.96,3.08,3.79,7.89,5.9,13.82,5.9,8.44,0,14.63-4.35,16.72-11.76l2.94,10.81h4.41c11.27,0,19.3-5.36,19.3-15.6,0-6.22-2.92-9.85-7.72-14.02ZM20.48,28.44c-5.04,0-8.19-3.86-8.19-8.35s3.15-8.35,8.19-8.35,8.19,3.86,8.19,8.35-3.15,8.35-8.19,8.35ZM100.34,27.65h-7.16c.38-1.58.58-3.29.58-5.12V7.49c1.11,3.26,3.8,6.05,7.29,8.89,3.23,2.68,6.15,4.57,6.15,7.33,0,2.44-2.36,3.94-6.85,3.94Z"/>
    </clipPath>
  </defs>
  <g id="Capa_catálogo" data-name="Capa catálogo">
    <g>
      <rect class="cls-2" x="125.67" y=".95" width="3.19" height="38.29"/>
      <text class="cls-1" transform="translate(133.63 19.01)"><tspan class="cls-3"><tspan x="0" y="0">Digital</tspan></tspan><tspan class="cls-8"><tspan x="0" y="14.18">Media design</tspan></tspan></text>
      <g class="cls-12">
        <g>
          <g>
            <rect class="cls-4" x="94.75" y="45.68" width="24.45" height="24.45"/>
            <rect class="cls-11" x="94.75" y="45.68" width="24.45" height="24.45" rx="12.22" ry="12.22"/>
            <path class="cls-5" d="M106.97,61.69h0c-2.09,0-3.78-1.69-3.78-3.78h0c0-2.09,1.69-3.78,3.78-3.78h0c2.09,0,3.78,1.69,3.78,3.78h0c0,2.09-1.69,3.78-3.78,3.78Z"/>
            <path class="cls-6" d="M106.97,67.79c-5.45,0-9.88-4.43-9.88-9.88s4.43-9.88,9.88-9.88,9.88,4.43,9.88,9.88-4.43,9.88-9.88,9.88ZM106.97,48.22c-5.34,0-9.68,4.34-9.68,9.68s4.34,9.68,9.68,9.68,9.68-4.34,9.68-9.68-4.34-9.68-9.68-9.68Z"/>
            <path class="cls-6" d="M106.97,64.48c-3.63,0-6.58-2.95-6.58-6.57s2.95-6.58,6.58-6.58,6.58,2.95,6.58,6.58-2.95,6.57-6.58,6.57ZM106.97,51.53c-3.52,0-6.38,2.86-6.38,6.38s2.86,6.38,6.38,6.38,6.38-2.86,6.38-6.38-2.86-6.38-6.38-6.38Z"/>
          </g>
          <g>
            <rect class="cls-10" x="45.85" y="-3.21" width="24.45" height="24.45"/>
            <g>
              <g>
                <path class="cls-9" d="M45.85,9.01h0c0,6.75,5.47,12.22,12.22,12.22h0c0-6.75-5.47-12.22-12.22-12.22h0Z"/>
                <path class="cls-9" d="M45.85-3.21h0c0,6.75,5.47,12.22,12.22,12.22h0c0-6.75-5.47-12.22-12.22-12.22Z"/>
              </g>
              <g>
                <path class="cls-11" d="M70.3,9.01h0c0,6.75-5.47,12.22-12.22,12.22h0c0-6.75,5.47-12.22,12.22-12.22h0Z"/>
                <path class="cls-11" d="M70.3-3.21h0c0,6.75-5.47,12.22-12.22,12.22h0c0-6.75,5.47-12.22,12.22-12.22Z"/>
              </g>
            </g>
          </g>
          <g>
            <rect class="cls-4" x="70.3" y="-3.21" width="24.45" height="24.45"/>
            <g>
              <path class="cls-9" d="M70.3,9.01h0c0,6.75,5.47,12.22,12.22,12.22h0c0-6.75-5.47-12.22-12.22-12.22h0Z"/>
              <path class="cls-9" d="M70.3-3.21h0c0,6.75,5.47,12.22,12.22,12.22h0c0-6.75-5.47-12.22-12.22-12.22Z"/>
            </g>
            <g>
              <path class="cls-11" d="M94.75,9.01h0c0,6.75-5.47,12.22-12.22,12.22h0c0-6.75,5.47-12.22,12.22-12.22h0Z"/>
              <path class="cls-11" d="M94.75-3.21h0c0,6.75-5.47,12.22-12.22,12.22h0c0-6.75,5.47-12.22,12.22-12.22Z"/>
            </g>
          </g>
          <g>
            <rect class="cls-11" x="21.4" y="45.68" width="24.45" height="24.45"/>
            <polygon class="cls-11" points="45.85 70.13 21.4 70.13 21.4 45.68 45.85 70.13"/>
            <polygon class="cls-5" points="21.4 45.68 45.85 45.68 33.63 57.91 21.4 45.68"/>
            <path class="cls-9" d="M34.78,51.47h0c0,.82-.67,1.48-1.48,1.48h0c-.82,0-1.48-.67-1.48-1.48h0c0-.82.67-1.48,1.48-1.48h0c.82,0,1.48.67,1.48,1.48Z"/>
          </g>
          <g>
            <rect class="cls-5" x="94.75" y="21.23" width="24.45" height="24.45"/>
            <polygon class="cls-11" points="119.19 21.23 119.19 45.68 94.75 21.23 119.19 21.23"/>
            <path class="cls-10" d="M106.97,21.23h0c0,6.75-5.47,12.22-12.22,12.22h0c0-6.75,5.47-12.22,12.22-12.22h0Z"/>
            <path class="cls-11" d="M94.75,33.46h0c0,6.75,5.47,12.22,12.22,12.22h0c0-6.75-5.47-12.22-12.22-12.22h0Z"/>
          </g>
          <g>
            <rect class="cls-5" x="45.85" y="21.23" width="24.45" height="24.45"/>
            <path class="cls-11" d="M45.85,21.23h0c13.49,0,24.45,10.95,24.45,24.45h-24.45v-24.45h0Z"/>
            <rect class="cls-11" x="70.3" y="21.23" width="24.45" height="24.45"/>
            <rect class="cls-10" x="45.85" y="45.68" width="24.45" height="24.45"/>
            <rect class="cls-5" x="70.3" y="45.68" width="24.45" height="24.45"/>
            <polygon class="cls-9" points="70.3 45.68 45.85 21.23 45.85 45.68 70.3 70.13 70.3 45.68"/>
            <polygon class="cls-4" points="70.3 45.68 94.75 21.23 94.75 45.68 70.3 70.13 70.3 45.68"/>
            <path class="cls-9" d="M82.53,21.23h12.22v12.22h0c-6.75,0-12.22-5.47-12.22-12.22h0Z"/>
            <rect class="cls-5" x="60.61" y="35.94" width="19.4" height="19.4" transform="translate(-11.68 63.09) rotate(-45)"/>
            <polygon class="cls-11" points="84.03 45.64 70.31 59.36 56.59 45.64 84.03 45.64"/>
            <rect class="cls-9" x="65.76" y="41.09" width="9.1" height="9.1" transform="translate(-11.68 63.09) rotate(-45)"/>
            <path class="cls-10" d="M94.75,33.46h0c0,6.75-5.47,12.22-12.22,12.22h0c0-6.75,5.47-12.22,12.22-12.22h0Z"/>
          </g>
          <g>
            <g>
              <rect class="cls-11" x="119.19" y="45.68" width="12.22" height="24.45"/>
              <rect class="cls-11" x="131.42" y="45.68" width="12.22" height="24.45"/>
            </g>
            <rect class="cls-5" x="143.64" y="45.68" width="24.45" height="24.45"/>
            <rect class="cls-11" x="119.19" y="45.68" width="24.45" height="24.45"/>
            <path class="cls-10" d="M131.44,45.68h0v12.24h-12.24c0-6.76,5.49-12.24,12.24-12.24Z" transform="translate(250.63 103.61) rotate(180)"/>
            <path class="cls-4" d="M143.64,45.68h24.45c0,13.49-10.95,24.45-24.45,24.45h0v-24.45h0Z"/>
            <path class="cls-11" d="M143.64,63.14v-.2c9.52,0,17.26-7.74,17.26-17.26h.2c0,9.62-7.83,17.45-17.45,17.45Z"/>
            <path class="cls-9" d="M143.64,45.68h12.25c0,6.76-5.49,12.25-12.25,12.25h0v-12.25h0Z"/>
          </g>
          <g>
            <rect class="cls-10" x="143.64" y="21.23" width="24.45" height="24.45"/>
            <rect class="cls-5" x="119.19" y="21.23" width="24.45" height="24.45"/>
            <path class="cls-11" d="M143.64,21.23h0c13.49,0,24.45,10.95,24.45,24.45h-24.45v-24.45h0Z"/>
            <path class="cls-5" d="M143.64,33.43h0c6.76,0,12.25,5.49,12.25,12.25h-12.25v-12.25h0Z"/>
            <rect class="cls-9" x="131.42" y="21.23" width="12.22" height="24.45"/>
            <g>
              <path class="cls-9" d="M119.19,21.23h0c0,6.75,5.47,12.22,12.22,12.22h0c0-6.75-5.47-12.22-12.22-12.22h0Z"/>
              <path class="cls-4" d="M131.42,33.46h0c0,6.75-5.47,12.22-12.22,12.22h0c0-6.75,5.47-12.22,12.22-12.22h0Z"/>
            </g>
            <path class="cls-5" d="M149.36,21.23h0c0,3.18-2.57,5.75-5.75,5.75h0c-3.18,0-5.75-2.57-5.75-5.75h11.5Z"/>
            <path class="cls-10" d="M131.42,33.46h0c0,6.75,5.47,12.22,12.22,12.22h0c0-6.75-5.47-12.22-12.22-12.22h0Z"/>
          </g>
          <g>
            <rect class="cls-11" x="94.75" y="-3.21" width="24.45" height="24.45"/>
            <path class="cls-4" d="M143.64-3.21h0v24.45h-24.45c0-13.49,10.95-24.45,24.45-24.45Z"/>
            <path class="cls-10" d="M143.64,9.13h0v12.11h-12.11c0-6.68,5.43-12.11,12.11-12.11Z"/>
            <rect class="cls-11" x="143.64" y="-3.21" width="24.45" height="24.45"/>
            <path class="cls-5" d="M143.64-3.21h0c13.49,0,24.45,10.95,24.45,24.45h-24.45V-3.21h0Z"/>
            <path class="cls-11" d="M162.44,21.23h-.2c0-10.27-8.36-18.63-18.63-18.63s-18.63,8.36-18.63,18.63h-.2c0-10.38,8.44-18.82,18.82-18.82s18.82,8.44,18.82,18.82Z"/>
            <g>
              <path class="cls-5" d="M94.75-3.21h0c13.49,0,24.45,10.95,24.45,24.45h-24.45V-3.21h0Z"/>
              <path class="cls-9" d="M94.75,9.02h0c6.74,0,12.22,5.47,12.22,12.22h-12.22v-12.22h0Z"/>
              <path class="cls-11" d="M112.9,21.23h-.2c0-9.9-8.06-17.96-17.96-17.96v-.2c10.01,0,18.16,8.14,18.16,18.16Z"/>
            </g>
            <path class="cls-9" d="M143.64,9h12.24v12.23h0c-6.75,0-12.23-5.48-12.23-12.23h0Z" transform="translate(299.52 30.23) rotate(180)"/>
            <path class="cls-11" d="M149.4,21.23h-.2c0-3.08-2.51-5.59-5.59-5.59s-5.59,2.51-5.59,5.59h-.2c0-3.19,2.59-5.78,5.78-5.78s5.78,2.59,5.78,5.78Z"/>
            <path class="cls-11" d="M155.91,21.23h-.2c0-6.67-5.43-12.1-12.1-12.1s-12.1,5.43-12.1,12.1h-.2c0-6.78,5.52-12.3,12.3-12.3s12.3,5.52,12.3,12.3Z"/>
            <path class="cls-9" d="M119.19-3.21v24.45c0-13.48,10.9-24.4,24.37-24.45h-24.37Z"/>
            <path class="cls-4" d="M126.68-3.21h0c0,3.6-2.95,6.55-6.55,6.55h0c-3.6,0-6.55-2.95-6.55-6.55h0s13.11,0,13.11,0Z"/>
            <path class="cls-9" d="M123.43-3.21h0c0,1.81-1.48,3.3-3.3,3.3h0c-1.81,0-3.3-1.48-3.3-3.3h6.6Z"/>
          </g>
          <g>
            <rect class="cls-11" x="21.4" y="-3.21" width="24.45" height="24.45"/>
            <path class="cls-4" d="M33.56-3.21h12.29v12.29h0c-6.78,0-12.29-5.51-12.29-12.29h0Z"/>
            <rect class="cls-4" x="21.4" y="21.23" width="24.45" height="24.45"/>
            <path class="cls-11" d="M45.85,33.43h0v12.26h-12.26c0-6.76,5.49-12.26,12.26-12.26Z"/>
            <path class="cls-9" d="M45.85,45.68h-7.04c0-3.89,3.15-7.04,7.04-7.04h0v7.04Z"/>
            <polygon class="cls-5" points="21.4 21.23 21.4 -3.21 45.85 -3.21 21.4 21.23"/>
            <polygon class="cls-9" points="45.85 21.24 21.4 45.68 21.4 -3.21 45.85 21.24"/>
            <polygon class="cls-11" points="21.4 13.09 29.54 21.23 21.4 29.38 21.4 13.09"/>
            <polygon class="cls-11" points="36.63 21.24 21.4 36.46 21.4 36.18 36.35 21.24 21.4 6.28 21.4 6.01 36.63 21.24"/>
            <polygon class="cls-10" points="21.4 16.21 26.43 21.23 21.4 26.26 21.4 16.21"/>
            <path class="cls-11" d="M45.85,3.97h0c-3.97,0-7.18-3.22-7.18-7.18h7.18V3.97Z"/>
          </g>
        </g>
      </g>
      <path class="cls-2" d="M68.37,19.83c0-7.27-3.87-13.64-9.67-17.15v-.4c-2.91-1.48-6.29-2.28-9.97-2.28-5.58,0-10.47,1.91-14.01,5.24C31.12,1.94,26.18,0,20.48,0,8.59,0,0,8.43,0,20.09s8.59,20.09,20.48,20.09c3.04,0,5.87-.55,8.39-1.57v16.38h12.13V20.09c0-5.44,3.62-8.35,7.88-8.35,4.73,0,7.72,3.55,7.72,7.8,0,4.81-3.78,8.11-9.14,8.11h-3.55l3.15,11.58h1.34c4.5,0,8.55-1.19,11.83-3.3,4.93-3.65,8.12-9.5,8.12-16.1ZM20.48,28.44c-5.04,0-8.19-3.86-8.19-8.35s3.15-8.35,8.19-8.35,8.19,3.86,8.19,8.35-3.15,8.35-8.19,8.35Z"/>
    </g>
  </g>
</svg>